<?xml version="1.0" standalone="no"?><!DOCTYPE svg PUBLIC "-//W3C//DTD SVG 1.1//EN" "http://www.w3.org/Graphics/SVG/1.1/DTD/svg11.dtd"><svg class="icon" width="200px" height="200.00px" viewBox="0 0 1024 1024" version="1.1" xmlns="http://www.w3.org/2000/svg"><path d="M512 42.666667C388.266667 42.666667 268.8 89.6 179.2 179.2S42.666667 388.266667 42.666667 512c0 260.266667 209.066667 469.333333 469.333333 469.333333 102.4 0 204.8-34.133333 285.866667-98.133333 17.066667-12.8 21.333333-42.666667 8.533333-59.733333s-42.666667-21.333333-59.733333-8.533334C678.4 866.133333 597.333333 896 512 896c-213.333333 0-384-170.666667-384-384 0-102.4 38.4-200.533333 110.933333-273.066667S409.6 128 512 128c213.333333 0 384 170.666667 384 384v42.666667c0 46.933333-38.4 85.333333-85.333333 85.333333s-85.333333-38.4-85.333334-85.333333V341.333333c0-25.6-17.066667-42.666667-42.666666-42.666666s-42.666667 17.066667-42.666667 42.666666c-34.133333-25.6-81.066667-42.666667-128-42.666666-119.466667 0-213.333333 93.866667-213.333333 213.333333s93.866667 213.333333 213.333333 213.333333c64 0 119.466667-29.866667 157.866667-72.533333 29.866667 42.666667 81.066667 72.533333 140.8 72.533333 93.866667 0 170.666667-76.8 170.666666-170.666666v-42.666667c0-260.266667-209.066667-469.333333-469.333333-469.333333z m0 597.333333c-72.533333 0-128-55.466667-128-128s55.466667-128 128-128 128 55.466667 128 128-55.466667 128-128 128z" /></svg>